<?xml version="1.0" encoding="UTF-8"?>
<svg id="a" data-name="Layer 1" xmlns="http://www.w3.org/2000/svg" viewBox="0 0 154.3 19.2">
  <defs>
    <style>
      .b {
        fill: #004098;
      }
    </style>
  </defs>
  <path class="b" d="M10.21,.65V6.35h-3.04v1.54h3.04v10.82h1.79V.65h-1.79Z"/>
  <path class="b" d="M17.9,8.58v1.54h5.25v1.48h-3.85v1.54h7.83v1.21h-7.83v4.36h9.77v-1.54h-7.98v-1.28h7.83v-4.29h-3.85v-1.48h5.26v-1.54h-12.43Z"/>
  <path class="b" d="M46.01,.65V7.3h-1.42V.65h-1.63V14.78c-.28,.13-.76,.32-2.15,.32h-2.91V2.58h3.66V1.04h-5.45v15.58h4.55c1.52,0,1.94-.13,2.28-.24,0,0,.02,0,.03,0v2.33h1.63V8.84h1.42v9.87h1.62V.65h-1.62Z"/>
  <path class="b" d="M54.75,11.96v1.54h8.43v5.2h1.79v-6.75h-10.21Z"/>
  <path class="b" d="M64.97,.65h-1.79V10.87h1.79v-3.93h1.82v-1.54h-1.82V.65Z"/>
  <path class="b" d="M82.37,12.47V1.04h-10.2v1.54h8.42V12.43c0,1.49-.01,3.46-.4,4.35h-1.4V8.25h-1.62v8.54h-1.88V8.25h-1.62v8.54h-2.12v1.54h11.64v-1.54h-1.22c.25-.9,.4-1.92,.4-4.32Z"/>
  <path class="b" d="M117.79,.65h-1.79V14.81c-.56,.37-1.34,.58-2.22,.59,.16-.48,.51-2.12,.51-4.86V1.04h-7.48v1.54h5.69v8c0,2.89-.34,4.43-.46,4.88h-1.7V7.68h-1.71v7.78h-2.13v1.54h6.92c1.54,0,2.33-.39,2.57-.54v2.25h1.79V8.65h1.82v-1.54h-1.82V.65Z"/>
  <path class="b" d="M134.83,.65V2.93h-2.12V1.04h-1.79V3.88h-3.88V1.04h-1.79V9.41h7.46v-1.71h2.12v3.23h1.79V.65h-1.79Zm-7.79,7.21v-2.44h3.88v2.44h-3.88Zm7.79-3.39v1.69h-2.12v-1.69h2.12Z"/>
  <path class="b" d="M146.27,14.34h1.79v-3.8h4.36v.93h-3.36v1.54h3.36v1.52h1.79V.65h-1.79V9.01h-10.04v1.54h3.89v3.8Z"/>
  <path class="b" d="M145.52,17.17v-3.61h-1.78v5.15h10.56v-1.54h-8.77Z"/>
  <path class="b" d="M5.57,7.91V1.04h-1.81V7.91c0,3.24-1.49,6.1-3.71,7.12l-.06,.02,.79,1.5,.05-.02c1.65-.8,3.04-2.44,3.83-4.5,.8,2.09,2.15,3.69,3.82,4.5l.06,.02,.79-1.5-.06-.02c-2.22-1.03-3.71-3.89-3.71-7.12Z"/>
  <polygon class="b" points="98.77 .65 98.77 18.71 100.56 18.71 100.56 .65 100.5 .65 98.77 .65"/>
  <path class="b" d="M24.11,7.75c2.31,0,4.19-1.74,4.19-3.88s-1.88-3.87-4.19-3.87-4.19,1.74-4.19,3.87,1.88,3.88,4.19,3.88Zm0-6.06c1.28,0,2.32,.98,2.32,2.18s-1.04,2.19-2.32,2.19-2.33-.98-2.33-2.19,1.04-2.18,2.33-2.18Z"/>
  <path class="b" d="M94.14,7.91V3.39h2.95V1.85h-2.95V.35h-1.8V1.85h-2.94v1.54h2.94V7.91c0,3.23-1.49,6.1-3.71,7.12l-.06,.02,.79,1.5,.05-.02c1.65-.8,3.03-2.44,3.82-4.5,.81,2.09,2.16,3.69,3.83,4.5l.05,.02,.79-1.5-.05-.02c-2.22-1.03-3.71-3.89-3.71-7.12Z"/>
  <path class="b" d="M53.86,6.4c0,2.22,1.84,4.03,4.11,4.03s4.11-1.81,4.11-4.03c0-1.16-.51-2.25-1.4-3.01h1.55V1.85h-3.35V.35h-1.82V1.85h-3.35v1.54h1.56c-.88,.77-1.4,1.85-1.4,3.01Zm4.11,2.47c-1.33,0-2.41-1.08-2.41-2.4s1.08-2.41,2.41-2.41,2.41,1.08,2.41,2.41-1.08,2.4-2.41,2.4Z"/>
  <path class="b" d="M131.94,10.95c-2.39,0-4.33,1.85-4.33,4.13s1.94,4.12,4.33,4.12,4.33-1.85,4.33-4.12-1.94-4.13-4.33-4.13Zm0,6.53c-1.38,0-2.51-1.08-2.51-2.41s1.12-2.41,2.51-2.41,2.51,1.08,2.51,2.41-1.13,2.41-2.51,2.41Z"/>
  <path class="b" d="M146.98,8.17c2.23,0,4.04-1.73,4.04-3.87s-1.81-3.87-4.04-3.87-4.04,1.73-4.04,3.87,1.81,3.87,4.04,3.87Zm0-6.13c1.24,0,2.25,1.01,2.25,2.26s-1.01,2.25-2.25,2.25-2.25-1.01-2.25-2.25,1.01-2.26,2.25-2.26Z"/>
</svg>